# xmcd CD database file
#
# Track frame offsets:
#	150
#	14597
#	35212
#	50310
#	71289
#	85280
#	101208
#	120740
#	137664
#	152023
#	172925
#	190525
#	205715
#	223814
#	236758
#	248210
#	267632
#	282635
#	310612
#
# Disc length: 4345 seconds
#
# Revision: 0
# Processed by: cddbd v1.5PL3 Copyright (c) Steve Scherf et al.
# Submitted via: CDex 1.51
#
DISCID=1810f713
DTITLE=Secret Garden - Dreamcatcher
DYEAR=2001
DGENRE=New Age
TTITLE0=Nocturne
TTITLE1=Prayer
TTITLE2=Moving
TTITLE3=Dreamchatcher
TTITLE4=Sigma
TTITLE5=Song From a Secret Garden
TTITLE6=Sona
TTITLE7=Passacaglia
TTITLE8=Elan
TTITLE9=In Our Tears
TTITLE10=Celebration
TTITLE11=Heartstrings
TTITLE12=Steps
TTITLE13=Adagio
TTITLE14=Rap, The
TTITLE15=Hymn to Hope
TTITLE16=Lore of the Loom
TTITLE17=Dawn of a New Century
TTITLE18=Last Present (Bonus)
EXTD=YEAR: 2001
EXTT0=
EXTT1=
EXTT2=
EXTT3=
EXTT4=
EXTT5=
EXTT6=
EXTT7=
EXTT8=
EXTT9=
EXTT10=
EXTT11=
EXTT12=
EXTT13=
EXTT14=
EXTT15=
EXTT16=
EXTT17=
EXTT18=
PLAYORDER=
